<svg width="1400" height="1400" version="1.1" viewBox="0 0 370.42 370.42" xmlns="http://www.w3.org/2000/svg">
 <text transform="scale(.26458)" xml:space="preserve"/>
 <path d="m138.86 126.13c-0.51296 0-1.0232 0.01539-1.5338 0.02946h-60.353v19.844h19.181c-3.7953 4.4723-6.9407 9.5741-9.2418 15.193-8.6625 21.154-3.8793 45.537 12.16 61.762 16.04 16.225 40.334 21.124 61.336 12.324 5.462-2.2885 10.422-5.3899 14.779-9.1204l-0.01964 18.107 19.844 0.02118 0.0708-64.507c1.1236-13.734 9.7036-25.728 22.359-31.03 3.8585-1.6166 7.8726-2.5218 11.882-2.7502h4.0468c8.7158 0.49295 17.15 4.174 23.626 10.724 10.438 10.558 13.575 26.452 7.908 40.291-5.667 13.839-18.892 22.742-33.584 22.742h-9.9219v19.844h9.9219c22.753-1e-5 43.287-13.913 51.949-35.067 8.1059-19.795 4.4351-42.416-9.2124-58.535h19.386v-19.844h-60.627c-1.0565-0.0294-2.1146-0.0308-3.1734 0h-80.862v-0.02946h-9.9219zm-1.4273 19.873h37.844l-0.02945 26.949h-0.02016v6.3851c-0.07195 1.1683-0.1173 2.3417-0.1173 3.5228v2.9569c-1.0784 13.79-9.6743 25.845-22.371 31.164-13.592 5.695-29.117 2.583-39.555-7.9747s-13.576-26.452-7.9086-40.291c5.4828-13.389 18.041-22.157 32.157-22.713z"/>
</svg>
